<?xml version="1.0" encoding="UTF-8" standalone="no"?>
<!-- Created with Inkscape (http://www.inkscape.org/) -->

<svg
   width="49.338074mm"
   height="49.338074mm"
   viewBox="0 0 49.338074 49.338074"
   version="1.1"
   id="svg1"
   xmlns:xlink="http://www.w3.org/1999/xlink"
   xmlns="http://www.w3.org/2000/svg"
   xmlns:svg="http://www.w3.org/2000/svg">
  <defs
     id="defs1">
    <linearGradient
       id="linearGradient34">
      <stop
         style="stop-color:#0094bc;stop-opacity:1;"
         offset="0"
         id="stop34" />
      <stop
         style="stop-color:#240073;stop-opacity:1;"
         offset="1"
         id="stop35" />
    </linearGradient>
    <linearGradient
       id="linearGradient31">
      <stop
         style="stop-color:#77b8ce;stop-opacity:1;"
         offset="0"
         id="stop31" />
      <stop
         style="stop-color:#0060d6;stop-opacity:1;"
         offset="1"
         id="stop32" />
    </linearGradient>
    <linearGradient
       xlink:href="#linearGradient31"
       id="linearGradient47"
       gradientUnits="userSpaceOnUse"
       x1="-494.43533"
       y1="-831.95593"
       x2="-561.64624"
       y2="-764.74506" />
    <linearGradient
       xlink:href="#linearGradient34"
       id="linearGradient50"
       gradientUnits="userSpaceOnUse"
       x1="-610.3869"
       y1="-823.77002"
       x2="-580.79376"
       y2="-791.62244" />
  </defs>
  <g
     id="layer1"
     transform="translate(-584.39569,-395.8748)">
    <g
       id="g50">
      <g
         id="g51">
        <g
           id="g53">
          <g
             id="g14"
             transform="translate(8.3333325e-6,263.31402)" />
          <path
             id="path13"
             style="fill:url(#linearGradient47);fill-opacity:1;stroke-width:2;stroke-opacity:0.54902"
             d="m -555.8899,-886.45384 c -4.3025,4e-5 -8.60474,1.64865 -11.90156,4.94547 l -17.20479,17.20479 a 8.6905006,8.6905006 89.999581 0 0 9e-5,12.29031 l 22.96147,22.9608 a 8.6908236,8.6908236 179.99981 0 0 12.29054,-4e-5 l 22.96111,-22.96075 a 8.6905586,8.6905586 90.000228 0 0 5e-5,-12.29035 l -17.20481,-17.20481 c -3.29681,-3.29681 -7.59954,-4.94538 -11.9021,-4.94542 z m -52.85187,45.89578 -17.20428,17.20428 c -6.59365,6.59365 -6.59368,17.21004 -5e-5,23.80367 l 58.15458,58.15458 c 6.5937,6.59369 17.2101,6.59367 23.80374,2e-5 l 58.15459,-58.15459 c 6.59365,-6.59364 6.59367,-17.21004 -2e-5,-23.80373 l -17.20425,-17.20425 a 8.690687,8.690687 1.9574615e-4 0 0 -12.29044,-4e-5 l -34.83367,34.83319 c -0.69734,0.67382 -1.51001,1.21695 -2.39932,1.60354 -0.27839,0.10778 -0.56252,0.20008 -0.85109,0.27649 -0.63964,0.21259 -1.30331,0.34452 -1.97563,0.39271 -0.33401,0.0207 -0.66899,0.0208 -1.003,4e-5 -0.67179,-0.0483 -1.33493,-0.18028 -1.97406,-0.39277 -0.28931,-0.0765 -0.57415,-0.16899 -0.85322,-0.27702 -0.88909,-0.38647 -1.70158,-0.92941 -2.39881,-1.60299 l -34.83455,-34.83324 a 8.6907909,8.6907909 179.99946 0 0 -12.29052,1.1e-4 z"
             transform="matrix(0.32891259,0,0,0.32891259,791.90401,687.44058)" />
          <path
             style="fill:url(#linearGradient50);fill-opacity:1;stroke-width:2;stroke-opacity:0.54902"
             transform="matrix(0.32891259,0,0,0.32891259,791.90401,687.44058)"
             d="m -602.59659,-843.10357 c -2.30497,2e-5 -4.51553,0.91569 -6.14536,2.54558 l -17.20412,17.20412 c -6.59364,6.59364 -6.59362,17.21009 0,23.80371 l 26.68412,26.68412 a 11.484742,11.484742 179.99982 0 0 16.24193,-5e-5 l 32.85847,-32.85888 c -0.69734,0.67382 -1.51003,1.21693 -2.39934,1.60352 -0.27838,0.10777 -0.56253,0.20005 -0.85111,0.27646 -0.63963,0.2126 -1.30327,0.34455 -1.97559,0.39275 -0.33401,0.0207 -0.66902,0.0207 -1.00304,0 -0.67179,-0.0484 -1.33491,-0.18026 -1.97404,-0.39275 -0.2893,-0.0765 -0.5741,-0.16895 -0.85317,-0.27698 -0.88909,-0.38647 -1.70159,-0.92943 -2.39882,-1.603 l -34.83457,-34.83302 c -1.62983,-1.62989 -3.84039,-2.54556 -6.14536,-2.54558 z"
             id="path14" />
        </g>
      </g>
    </g>
  </g>
</svg>
